<?xml version="1.0" encoding="iso-8859-1"?>
<!-- Generator: Adobe Illustrator 21.0.0, SVG Export Plug-In . SVG Version: 6.00 Build 0)  -->
<svg xmlns="http://www.w3.org/2000/svg" xmlns:xlink="http://www.w3.org/1999/xlink" version="1.1" id="Capa_1" x="0px" y="0px" viewBox="0 0 510.338 510.338" style="enable-background:new 0 0 510.338 510.338;" xml:space="preserve" width="512" height="512">
<g>
	<path fill="white" opacity="0.1" d="M246.825,97.303c-4.142,0-7.5,3.358-7.5,7.5s3.358,7.5,7.5,7.5h116.312c4.143,0,7.5-3.358,7.5-7.5s-3.357-7.5-7.5-7.5   H246.825z"/>
	<path fill="white" opacity="0.1" d="M510.338,196.338c-0.866-23.259-16.279-43.535-37.979-51.837c-13.372-7.415-24.87-17.327-34.183-29.464   c-2.521-3.286-7.229-3.907-10.516-1.385c-3.286,2.521-3.906,7.229-1.385,10.516c10.594,13.809,23.681,25.079,38.902,33.503   c0.424,0.264,0.88,0.489,1.364,0.668c16.32,6.038,27.284,21.172,27.931,38.557l0.58,15.551h-71.079   c-26.333-43.225-73.914-72.148-128.124-72.148c-54.21,0-101.791,28.923-128.124,72.148H18.335l12.67-33.678   c3.895-10.352,12.187-18.178,22.749-21.471c0.159-0.05,0.316-0.105,0.47-0.164l106.954-29.857   c22.128-6.177,40.134-21.776,49.4-42.798c9.009-20.437,29.262-33.642,51.596-33.642h91.246c22.575,0,42.915,13.405,51.816,34.151   l5.233,12.198c1.633,3.806,6.043,5.569,9.85,3.935c3.807-1.633,5.568-6.044,3.936-9.85l-5.233-12.197   c-11.271-26.265-37.021-43.236-65.602-43.236h-91.246c-28.276,0-53.916,16.718-65.322,42.592   c-5.123,11.621-13.569,21.181-24.13,27.633l-1.627-5.786c-3.668-13.044-17.266-20.674-30.311-17.004l-37.044,10.417   C90.697,97.357,83.069,110.955,86.737,124l2.213,7.867l-39.571,11.046c-0.349,0.097-0.686,0.218-1.01,0.361   c-14.567,4.841-25.982,15.805-31.402,30.212L0.481,217.306C0.166,218.14,0,219.056,0,219.947v162.696c0,4.142,3.358,7.5,7.5,7.5   c4.142,0,7.5-3.358,7.5-7.5V227.447h80.123v232.054H37.5c-12.407,0-22.5-10.093-22.5-22.5v-24.358c0-4.142-3.358-7.5-7.5-7.5   c-4.142,0-7.5,3.358-7.5,7.5v24.358c0,20.678,16.822,37.5,37.5,37.5h435.338c20.678,0,37.5-16.822,37.5-37.5V196.338z    M101.177,119.939c-0.692-2.462-0.385-5.046,0.867-7.277c1.251-2.23,3.296-3.84,5.758-4.533l37.044-10.417   c5.084-1.431,10.382,1.543,11.811,6.625l2.237,7.953c-0.582,0.181-1.158,0.376-1.748,0.541l-53.748,15.004L101.177,119.939z    M442.861,260.81c14.233,2.217,25.16,14.556,25.16,29.402c0,14.845-10.928,27.185-25.16,29.401   c1.899-9.511,2.903-19.341,2.903-29.401C445.764,280.151,444.76,270.321,442.861,260.81z M295.851,155.298   c74.392,0,134.913,60.522,134.913,134.913s-60.521,134.913-134.913,134.913c-74.391,0-134.913-60.522-134.913-134.913   S221.459,155.298,295.851,155.298z M472.838,459.501H110.123V227.447h49.605c-8.844,19.104-13.79,40.366-13.79,62.765   c0,82.663,67.25,149.913,149.913,149.913c67.085,0,124.018-44.294,143.094-105.173c24.366-0.367,44.077-20.289,44.077-44.74   c0-24.452-19.711-44.374-44.077-44.741c-1.94-6.19-4.277-12.206-6.971-18.024h63.365v209.554   C495.338,449.408,485.244,459.501,472.838,459.501z"/>
	<path fill="white" opacity="0.1" d="M295.851,407.836c64.858,0,117.625-52.767,117.625-117.625s-52.767-117.625-117.625-117.625   c-20.543,0-40.767,5.377-58.486,15.55c-3.592,2.063-4.832,6.646-2.77,10.239c2.063,3.592,6.646,4.833,10.239,2.77   c15.45-8.87,33.092-13.559,51.018-13.559c56.588,0,102.625,46.038,102.625,102.625s-46.037,102.625-102.625,102.625   c-56.587,0-102.625-46.038-102.625-102.625c0-27.412,10.675-53.184,30.058-72.567c2.929-2.929,2.929-7.678,0-10.607   c-2.929-2.929-7.678-2.929-10.606,0c-22.216,22.216-34.452,51.754-34.452,83.173C178.225,355.07,230.992,407.836,295.851,407.836z"/>
	<path fill="white" opacity="0.1" d="M354.966,290.211c0-32.596-26.519-59.115-59.115-59.115c-32.597,0-59.115,26.519-59.115,59.115   s26.519,59.115,59.115,59.115C328.447,349.327,354.966,322.808,354.966,290.211z M251.735,290.211   c0-24.325,19.79-44.115,44.115-44.115c24.325,0,44.115,19.79,44.115,44.115c0,24.325-19.79,44.115-44.115,44.115   C271.525,334.327,251.735,314.537,251.735,290.211z"/>
	<path fill="white" opacity="0.1" d="M60.987,181.466c0,13.547,11.022,24.568,24.568,24.568c13.547,0,24.568-11.021,24.568-24.568   c0-13.547-11.021-24.568-24.568-24.568C72.008,156.898,60.987,167.919,60.987,181.466z M95.123,181.466   c0,5.276-4.292,9.568-9.568,9.568c-5.276,0-9.568-4.293-9.568-9.568c0-5.276,4.292-9.568,9.568-9.568   C90.831,171.898,95.123,176.19,95.123,181.466z"/>
</g>
</svg>
