<?xml version="1.0" encoding="iso-8859-1"?>
<!-- Generator: Adobe Illustrator 16.0.0, SVG Export Plug-In . SVG Version: 6.00 Build 0)  -->
<!DOCTYPE svg PUBLIC "-//W3C//DTD SVG 1.1//EN" "http://www.w3.org/Graphics/SVG/1.1/DTD/svg11.dtd">
<svg opacity="0.3" version="1.1" id="Capa_1" xmlns="http://www.w3.org/2000/svg" xmlns:xlink="http://www.w3.org/1999/xlink" x="0px" y="0px"
	 width="43px" height="43px" viewBox="0 0 43 43" style="enable-background:new 0 0 43 43;" xml:space="preserve">
<g>
	<path fill="#ef6c00" d="M6.75,24.375h-3V7c0-0.829,0.671-1.5,1.5-1.5h29c0.829,0,1.5,0.671,1.5,1.5v6.625h-3V11.5H17v10.75
		c0,0.275-0.224,0.5-0.5,0.5s-0.5-0.225-0.5-0.5v-9H9.125c-0.276,0-0.5-0.224-0.5-0.5s0.224-0.5,0.5-0.5H16V11
		c0-0.276,0.224-0.5,0.5-0.5h16.25v-2h-26v9h5.375v-3.125c0-0.276,0.224-0.5,0.5-0.5s0.5,0.224,0.5,0.5V18.5H6.75V24.375z
		 M32.75,19.875h-8.625c-0.275,0-0.5,0.224-0.5,0.5s0.225,0.5,0.5,0.5h8.625V34.5H28v-12c0-0.275-0.225-0.5-0.5-0.5h-3.375
		c-0.275,0-0.5,0.225-0.5,0.5s0.225,0.5,0.5,0.5H27v7.5H13.5c-0.276,0-0.5,0.225-0.5,0.5s0.224,0.5,0.5,0.5H17v1.75
		c0,0.275,0.224,0.5,0.5,0.5s0.5-0.225,0.5-0.5V31.5h9v3H10.375v-4.625c0-0.275-0.224-0.5-0.5-0.5s-0.5,0.225-0.5,0.5V34.5H6.75
		v-5.125h-3V36c0,0.829,0.671,1.5,1.5,1.5h29c0.829,0,1.5-0.671,1.5-1.5V18.625h-3V19.875z M43,16.374l-5.374-4.249v2.5H19.75
		c-0.829,0-1.5,0.671-1.5,1.5v9.25H0v3h19.75c0.829,0,1.5-0.671,1.5-1.5v-9.25h16.376v2.996L43,16.374z"/>
</g>
<g>
</g>
<g>
</g>
<g>
</g>
<g>
</g>
<g>
</g>
<g>
</g>
<g>
</g>
<g>
</g>
<g>
</g>
<g>
</g>
<g>
</g>
<g>
</g>
<g>
</g>
<g>
</g>
<g>
</g>
</svg>
